<?xml version="1.0" encoding="utf-8" standalone="no"?>
<!DOCTYPE svg PUBLIC "-//W3C//DTD SVG 1.1//EN"
  "http://www.w3.org/Graphics/SVG/1.1/DTD/svg11.dtd">
<svg xmlns:xlink="http://www.w3.org/1999/xlink" width="288pt" height="288pt" viewBox="0 0 288 288" xmlns="http://www.w3.org/2000/svg" version="1.1">
 <metadata>
  <rdf:RDF xmlns:dc="http://purl.org/dc/elements/1.1/" xmlns:cc="http://creativecommons.org/ns#" xmlns:rdf="http://www.w3.org/1999/02/22-rdf-syntax-ns#">
   <cc:Work>
    <dc:type rdf:resource="http://purl.org/dc/dcmitype/StillImage"/>
    <dc:date>2026-06-02T16:32:51.281163</dc:date>
    <dc:format>image/svg+xml</dc:format>
    <dc:creator>
     <cc:Agent>
      <dc:title>Matplotlib v3.10.8, https://matplotlib.org/</dc:title>
     </cc:Agent>
    </dc:creator>
   </cc:Work>
  </rdf:RDF>
 </metadata>
 <defs>
  <style type="text/css">*{stroke-linejoin: round; stroke-linecap: butt}</style>
 </defs>
 <g id="figure_1">
  <g id="patch_1">
   <path d="M 0 288 
L 288 288 
L 288 0 
L 0 0 
z
" style="fill: #ffffff"/>
  </g>
  <g id="axes_1">
   <g id="patch_2">
    <path d="M 413.712 145.44 
C 413.712 95.949918 399.90615 47.427392 373.852978 5.350078 
C 347.799806 -36.727237 310.518017 -70.714076 266.216311 -92.773701 
C 221.914606 -114.833326 172.325224 -124.103184 123.046259 -119.536811 
C 73.767294 -114.970438 26.725601 -96.746384 -12.768333 -66.921942 
L 147.6 145.44 
z
" style="fill: #e69f00"/>
   </g>
   <g id="patch_3">
    <path d="M -12.768317 -66.921954 
C -39.005477 -47.108563 -61.344972 -22.603306 -78.652974 5.350086 
C -95.960976 33.303478 -107.939637 64.223915 -113.980937 96.542046 
L 147.6 145.44 
z
" style="fill: #56b4e9"/>
   </g>
   <g id="patch_4">
    <path d="M -113.980937 96.542046 
C -120.022238 128.860176 -120.022238 162.019808 -113.980937 194.337938 
C -107.939637 226.656069 -95.960992 257.576507 -78.65299 285.529898 
L 147.6 145.44 
z
" style="fill: #009e73"/>
   </g>
   <g id="patch_5">
    <path d="M -78.65299 285.529898 
C -65.688013 306.46906 -49.878813 325.507362 -31.67849 342.099153 
C -13.478167 358.690944 6.937676 372.676102 28.983781 383.653743 
L 147.6 145.44 
z
" style="fill: #f0e442"/>
   </g>
   <g id="patch_6">
    <path d="M 28.983781 383.653743 
C 51.029869 394.631384 74.493486 402.495585 98.702149 407.020953 
C 122.910814 411.546322 147.630983 412.689207 172.153925 410.416792 
L 147.6 145.44 
z
" style="fill: #0072b2"/>
   </g>
   <g id="patch_7">
    <path d="M 172.153925 410.416792 
C 180.316625 409.660404 188.440021 408.527226 196.498109 407.020906 
C 204.556197 405.514585 212.540378 403.636725 220.425107 401.393321 
L 147.6 145.44 
z
" style="fill: #d55e00"/>
   </g>
   <g id="patch_8">
    <path d="M 220.425107 401.393321 
C 228.30988 399.1499 236.086771 396.543346 243.730909 393.581986 
C 251.375048 390.620626 258.878272 387.307632 266.21656 383.653584 
L 147.6 145.44 
z
" style="fill: #cc79a7"/>
   </g>
   <g id="patch_9">
    <path d="M 266.21656 383.653584 
C 273.554809 379.999568 280.720287 376.008384 287.690089 371.692863 
C 294.65989 367.377342 301.426554 362.742069 307.968428 357.801859 
L 147.6 145.44 
z
"/>
   </g>
   <g id="patch_10">
    <path d="M 307.968428 357.801859 
C 314.510334 352.861633 320.820487 347.621751 326.878664 342.098979 
C 332.936842 336.576207 338.736603 330.776461 344.259359 324.718268 
L 147.6 145.44 
z
" style="fill: #e69f00"/>
   </g>
   <g id="patch_11">
    <path d="M 344.259359 324.718268 
C 349.7821 318.66009 355.021918 312.350001 359.962129 305.808095 
C 364.902339 299.266189 369.537644 292.499446 373.853164 285.529629 
L 147.6 145.44 
z
" style="fill: #56b4e9"/>
   </g>
   <g id="patch_12">
    <path d="M 373.853164 285.529629 
C 378.168685 278.559811 382.159869 271.39423 385.813886 264.05595 
C 389.467902 256.717669 392.780833 249.214516 395.742177 241.570394 
L 147.6 145.44 
z
" style="fill: #009e73"/>
   </g>
   <g id="patch_13">
    <path d="M 395.742177 241.570394 
C 398.703521 233.926272 401.310043 226.149444 403.553432 218.264695 
C 405.79682 210.379942 407.674712 202.395669 409.181017 194.337558 
L 147.6 145.44 
z
" style="fill: #f0e442"/>
   </g>
   <g id="patch_14">
    <path d="M 409.181017 194.337558 
C 410.687321 186.279446 411.820483 178.155967 412.576855 169.993245 
C 413.333227 161.830522 413.712 153.637264 413.712 145.439573 
L 147.6 145.44 
z
" style="fill: #0072b2"/>
   </g>
   <g id="text_1">
    <!-- Beta-lactams -->
    <g transform="translate(278.077952 -113.835691) scale(0.1 -0.1)">
     <defs>
      <path id="DejaVuSans-42" d="M 1259 2228 
L 1259 519 
L 2272 519 
Q 2781 519 3026 730 
Q 3272 941 3272 1375 
Q 3272 1813 3026 2020 
Q 2781 2228 2272 2228 
L 1259 2228 
z
M 1259 4147 
L 1259 2741 
L 2194 2741 
Q 2656 2741 2882 2914 
Q 3109 3088 3109 3444 
Q 3109 3797 2882 3972 
Q 2656 4147 2194 4147 
L 1259 4147 
z
M 628 4666 
L 2241 4666 
Q 2963 4666 3353 4366 
Q 3744 4066 3744 3513 
Q 3744 3084 3544 2831 
Q 3344 2578 2956 2516 
Q 3422 2416 3680 2098 
Q 3938 1781 3938 1306 
Q 3938 681 3513 340 
Q 3088 0 2303 0 
L 628 0 
L 628 4666 
z
" transform="scale(0.015625)"/>
      <path id="DejaVuSans-65" d="M 3597 1894 
L 3597 1613 
L 953 1613 
Q 991 1019 1311 708 
Q 1631 397 2203 397 
Q 2534 397 2845 478 
Q 3156 559 3463 722 
L 3463 178 
Q 3153 47 2828 -22 
Q 2503 -91 2169 -91 
Q 1331 -91 842 396 
Q 353 884 353 1716 
Q 353 2575 817 3079 
Q 1281 3584 2069 3584 
Q 2775 3584 3186 3129 
Q 3597 2675 3597 1894 
z
M 3022 2063 
Q 3016 2534 2758 2815 
Q 2500 3097 2075 3097 
Q 1594 3097 1305 2825 
Q 1016 2553 972 2059 
L 3022 2063 
z
" transform="scale(0.015625)"/>
      <path id="DejaVuSans-74" d="M 1172 4494 
L 1172 3500 
L 2356 3500 
L 2356 3053 
L 1172 3053 
L 1172 1153 
Q 1172 725 1289 603 
Q 1406 481 1766 481 
L 2356 481 
L 2356 0 
L 1766 0 
Q 1100 0 847 248 
Q 594 497 594 1153 
L 594 3053 
L 172 3053 
L 172 3500 
L 594 3500 
L 594 4494 
L 1172 4494 
z
" transform="scale(0.015625)"/>
      <path id="DejaVuSans-61" d="M 2194 1759 
Q 1497 1759 1228 1600 
Q 959 1441 959 1056 
Q 959 750 1161 570 
Q 1363 391 1709 391 
Q 2188 391 2477 730 
Q 2766 1069 2766 1631 
L 2766 1759 
L 2194 1759 
z
M 3341 1997 
L 3341 0 
L 2766 0 
L 2766 531 
Q 2569 213 2275 61 
Q 1981 -91 1556 -91 
Q 1019 -91 701 211 
Q 384 513 384 1019 
Q 384 1609 779 1909 
Q 1175 2209 1959 2209 
L 2766 2209 
L 2766 2266 
Q 2766 2663 2505 2880 
Q 2244 3097 1772 3097 
Q 1472 3097 1187 3025 
Q 903 2953 641 2809 
L 641 3341 
Q 956 3463 1253 3523 
Q 1550 3584 1831 3584 
Q 2591 3584 2966 3190 
Q 3341 2797 3341 1997 
z
" transform="scale(0.015625)"/>
      <path id="DejaVuSans-2d" d="M 313 2009 
L 1997 2009 
L 1997 1497 
L 313 1497 
L 313 2009 
z
" transform="scale(0.015625)"/>
      <path id="DejaVuSans-6c" d="M 603 4863 
L 1178 4863 
L 1178 0 
L 603 0 
L 603 4863 
z
" transform="scale(0.015625)"/>
      <path id="DejaVuSans-63" d="M 3122 3366 
L 3122 2828 
Q 2878 2963 2633 3030 
Q 2388 3097 2138 3097 
Q 1578 3097 1268 2742 
Q 959 2388 959 1747 
Q 959 1106 1268 751 
Q 1578 397 2138 397 
Q 2388 397 2633 464 
Q 2878 531 3122 666 
L 3122 134 
Q 2881 22 2623 -34 
Q 2366 -91 2075 -91 
Q 1284 -91 818 406 
Q 353 903 353 1747 
Q 353 2603 823 3093 
Q 1294 3584 2113 3584 
Q 2378 3584 2631 3529 
Q 2884 3475 3122 3366 
z
" transform="scale(0.015625)"/>
      <path id="DejaVuSans-6d" d="M 3328 2828 
Q 3544 3216 3844 3400 
Q 4144 3584 4550 3584 
Q 5097 3584 5394 3201 
Q 5691 2819 5691 2113 
L 5691 0 
L 5113 0 
L 5113 2094 
Q 5113 2597 4934 2840 
Q 4756 3084 4391 3084 
Q 3944 3084 3684 2787 
Q 3425 2491 3425 1978 
L 3425 0 
L 2847 0 
L 2847 2094 
Q 2847 2600 2669 2842 
Q 2491 3084 2119 3084 
Q 1678 3084 1418 2786 
Q 1159 2488 1159 1978 
L 1159 0 
L 581 0 
L 581 3500 
L 1159 3500 
L 1159 2956 
Q 1356 3278 1631 3431 
Q 1906 3584 2284 3584 
Q 2666 3584 2933 3390 
Q 3200 3197 3328 2828 
z
" transform="scale(0.015625)"/>
      <path id="DejaVuSans-73" d="M 2834 3397 
L 2834 2853 
Q 2591 2978 2328 3040 
Q 2066 3103 1784 3103 
Q 1356 3103 1142 2972 
Q 928 2841 928 2578 
Q 928 2378 1081 2264 
Q 1234 2150 1697 2047 
L 1894 2003 
Q 2506 1872 2764 1633 
Q 3022 1394 3022 966 
Q 3022 478 2636 193 
Q 2250 -91 1575 -91 
Q 1294 -91 989 -36 
Q 684 19 347 128 
L 347 722 
Q 666 556 975 473 
Q 1284 391 1588 391 
Q 1994 391 2212 530 
Q 2431 669 2431 922 
Q 2431 1156 2273 1281 
Q 2116 1406 1581 1522 
L 1381 1569 
Q 847 1681 609 1914 
Q 372 2147 372 2553 
Q 372 3047 722 3315 
Q 1072 3584 1716 3584 
Q 2034 3584 2315 3537 
Q 2597 3491 2834 3397 
z
" transform="scale(0.015625)"/>
     </defs>
     <use xlink:href="#DejaVuSans-42"/>
     <use xlink:href="#DejaVuSans-65" transform="translate(68.603516 0)"/>
     <use xlink:href="#DejaVuSans-74" transform="translate(130.126953 0)"/>
     <use xlink:href="#DejaVuSans-61" transform="translate(169.335938 0)"/>
     <use xlink:href="#DejaVuSans-2d" transform="translate(230.615234 0)"/>
     <use xlink:href="#DejaVuSans-6c" transform="translate(266.699219 0)"/>
     <use xlink:href="#DejaVuSans-61" transform="translate(294.482422 0)"/>
     <use xlink:href="#DejaVuSans-63" transform="translate(355.761719 0)"/>
     <use xlink:href="#DejaVuSans-74" transform="translate(410.742188 0)"/>
     <use xlink:href="#DejaVuSans-61" transform="translate(449.951172 0)"/>
     <use xlink:href="#DejaVuSans-6d" transform="translate(511.230469 0)"/>
     <use xlink:href="#DejaVuSans-73" transform="translate(608.642578 0)"/>
    </g>
   </g>
   <g id="text_2">
    <!-- Tetracyclines -->
    <g transform="translate(-166.170471 -5.899528) scale(0.1 -0.1)">
     <defs>
      <path id="DejaVuSans-54" d="M -19 4666 
L 3928 4666 
L 3928 4134 
L 2272 4134 
L 2272 0 
L 1638 0 
L 1638 4134 
L -19 4134 
L -19 4666 
z
" transform="scale(0.015625)"/>
      <path id="DejaVuSans-72" d="M 2631 2963 
Q 2534 3019 2420 3045 
Q 2306 3072 2169 3072 
Q 1681 3072 1420 2755 
Q 1159 2438 1159 1844 
L 1159 0 
L 581 0 
L 581 3500 
L 1159 3500 
L 1159 2956 
Q 1341 3275 1631 3429 
Q 1922 3584 2338 3584 
Q 2397 3584 2469 3576 
Q 2541 3569 2628 3553 
L 2631 2963 
z
" transform="scale(0.015625)"/>
      <path id="DejaVuSans-79" d="M 2059 -325 
Q 1816 -950 1584 -1140 
Q 1353 -1331 966 -1331 
L 506 -1331 
L 506 -850 
L 844 -850 
Q 1081 -850 1212 -737 
Q 1344 -625 1503 -206 
L 1606 56 
L 191 3500 
L 800 3500 
L 1894 763 
L 2988 3500 
L 3597 3500 
L 2059 -325 
z
" transform="scale(0.015625)"/>
      <path id="DejaVuSans-69" d="M 603 3500 
L 1178 3500 
L 1178 0 
L 603 0 
L 603 3500 
z
M 603 4863 
L 1178 4863 
L 1178 4134 
L 603 4134 
L 603 4863 
z
" transform="scale(0.015625)"/>
      <path id="DejaVuSans-6e" d="M 3513 2113 
L 3513 0 
L 2938 0 
L 2938 2094 
Q 2938 2591 2744 2837 
Q 2550 3084 2163 3084 
Q 1697 3084 1428 2787 
Q 1159 2491 1159 1978 
L 1159 0 
L 581 0 
L 581 3500 
L 1159 3500 
L 1159 2956 
Q 1366 3272 1645 3428 
Q 1925 3584 2291 3584 
Q 2894 3584 3203 3211 
Q 3513 2838 3513 2113 
z
" transform="scale(0.015625)"/>
     </defs>
     <use xlink:href="#DejaVuSans-54"/>
     <use xlink:href="#DejaVuSans-65" transform="translate(44.083984 0)"/>
     <use xlink:href="#DejaVuSans-74" transform="translate(105.607422 0)"/>
     <use xlink:href="#DejaVuSans-72" transform="translate(144.816406 0)"/>
     <use xlink:href="#DejaVuSans-61" transform="translate(185.929688 0)"/>
     <use xlink:href="#DejaVuSans-63" transform="translate(247.208984 0)"/>
     <use xlink:href="#DejaVuSans-79" transform="translate(302.189453 0)"/>
     <use xlink:href="#DejaVuSans-63" transform="translate(361.369141 0)"/>
     <use xlink:href="#DejaVuSans-6c" transform="translate(416.349609 0)"/>
     <use xlink:href="#DejaVuSans-69" transform="translate(444.132812 0)"/>
     <use xlink:href="#DejaVuSans-6e" transform="translate(471.916016 0)"/>
     <use xlink:href="#DejaVuSans-65" transform="translate(535.294922 0)"/>
     <use xlink:href="#DejaVuSans-73" transform="translate(596.818359 0)"/>
    </g>
   </g>
   <g id="text_3">
    <!-- Aminoglycosides -->
    <g transform="translate(-224.315583 201.987177) scale(0.1 -0.1)">
     <defs>
      <path id="DejaVuSans-41" d="M 2188 4044 
L 1331 1722 
L 3047 1722 
L 2188 4044 
z
M 1831 4666 
L 2547 4666 
L 4325 0 
L 3669 0 
L 3244 1197 
L 1141 1197 
L 716 0 
L 50 0 
L 1831 4666 
z
" transform="scale(0.015625)"/>
      <path id="DejaVuSans-6f" d="M 1959 3097 
Q 1497 3097 1228 2736 
Q 959 2375 959 1747 
Q 959 1119 1226 758 
Q 1494 397 1959 397 
Q 2419 397 2687 759 
Q 2956 1122 2956 1747 
Q 2956 2369 2687 2733 
Q 2419 3097 1959 3097 
z
M 1959 3584 
Q 2709 3584 3137 3096 
Q 3566 2609 3566 1747 
Q 3566 888 3137 398 
Q 2709 -91 1959 -91 
Q 1206 -91 779 398 
Q 353 888 353 1747 
Q 353 2609 779 3096 
Q 1206 3584 1959 3584 
z
" transform="scale(0.015625)"/>
      <path id="DejaVuSans-67" d="M 2906 1791 
Q 2906 2416 2648 2759 
Q 2391 3103 1925 3103 
Q 1463 3103 1205 2759 
Q 947 2416 947 1791 
Q 947 1169 1205 825 
Q 1463 481 1925 481 
Q 2391 481 2648 825 
Q 2906 1169 2906 1791 
z
M 3481 434 
Q 3481 -459 3084 -895 
Q 2688 -1331 1869 -1331 
Q 1566 -1331 1297 -1286 
Q 1028 -1241 775 -1147 
L 775 -588 
Q 1028 -725 1275 -790 
Q 1522 -856 1778 -856 
Q 2344 -856 2625 -561 
Q 2906 -266 2906 331 
L 2906 616 
Q 2728 306 2450 153 
Q 2172 0 1784 0 
Q 1141 0 747 490 
Q 353 981 353 1791 
Q 353 2603 747 3093 
Q 1141 3584 1784 3584 
Q 2172 3584 2450 3431 
Q 2728 3278 2906 2969 
L 2906 3500 
L 3481 3500 
L 3481 434 
z
" transform="scale(0.015625)"/>
      <path id="DejaVuSans-64" d="M 2906 2969 
L 2906 4863 
L 3481 4863 
L 3481 0 
L 2906 0 
L 2906 525 
Q 2725 213 2448 61 
Q 2172 -91 1784 -91 
Q 1150 -91 751 415 
Q 353 922 353 1747 
Q 353 2572 751 3078 
Q 1150 3584 1784 3584 
Q 2172 3584 2448 3432 
Q 2725 3281 2906 2969 
z
M 947 1747 
Q 947 1113 1208 752 
Q 1469 391 1925 391 
Q 2381 391 2643 752 
Q 2906 1113 2906 1747 
Q 2906 2381 2643 2742 
Q 2381 3103 1925 3103 
Q 1469 3103 1208 2742 
Q 947 2381 947 1747 
z
" transform="scale(0.015625)"/>
     </defs>
     <use xlink:href="#DejaVuSans-41"/>
     <use xlink:href="#DejaVuSans-6d" transform="translate(68.408203 0)"/>
     <use xlink:href="#DejaVuSans-69" transform="translate(165.820312 0)"/>
     <use xlink:href="#DejaVuSans-6e" transform="translate(193.603516 0)"/>
     <use xlink:href="#DejaVuSans-6f" transform="translate(256.982422 0)"/>
     <use xlink:href="#DejaVuSans-67" transform="translate(318.164062 0)"/>
     <use xlink:href="#DejaVuSans-6c" transform="translate(381.640625 0)"/>
     <use xlink:href="#DejaVuSans-79" transform="translate(409.423828 0)"/>
     <use xlink:href="#DejaVuSans-63" transform="translate(468.603516 0)"/>
     <use xlink:href="#DejaVuSans-6f" transform="translate(523.583984 0)"/>
     <use xlink:href="#DejaVuSans-73" transform="translate(584.765625 0)"/>
     <use xlink:href="#DejaVuSans-69" transform="translate(636.865234 0)"/>
     <use xlink:href="#DejaVuSans-64" transform="translate(664.648438 0)"/>
     <use xlink:href="#DejaVuSans-65" transform="translate(728.125 0)"/>
     <use xlink:href="#DejaVuSans-73" transform="translate(789.648438 0)"/>
    </g>
   </g>
   <g id="text_4">
    <!-- Macrolides -->
    <g transform="translate(-103.132891 364.524445) scale(0.1 -0.1)">
     <defs>
      <path id="DejaVuSans-4d" d="M 628 4666 
L 1569 4666 
L 2759 1491 
L 3956 4666 
L 4897 4666 
L 4897 0 
L 4281 0 
L 4281 4097 
L 3078 897 
L 2444 897 
L 1241 4097 
L 1241 0 
L 628 0 
L 628 4666 
z
" transform="scale(0.015625)"/>
     </defs>
     <use xlink:href="#DejaVuSans-4d"/>
     <use xlink:href="#DejaVuSans-61" transform="translate(86.279297 0)"/>
     <use xlink:href="#DejaVuSans-63" transform="translate(147.558594 0)"/>
     <use xlink:href="#DejaVuSans-72" transform="translate(202.539062 0)"/>
     <use xlink:href="#DejaVuSans-6f" transform="translate(241.402344 0)"/>
     <use xlink:href="#DejaVuSans-6c" transform="translate(302.583984 0)"/>
     <use xlink:href="#DejaVuSans-69" transform="translate(330.367188 0)"/>
     <use xlink:href="#DejaVuSans-64" transform="translate(358.150391 0)"/>
     <use xlink:href="#DejaVuSans-65" transform="translate(421.626953 0)"/>
     <use xlink:href="#DejaVuSans-73" transform="translate(483.150391 0)"/>
    </g>
   </g>
   <g id="text_5">
    <!-- Quinolones -->
    <g transform="translate(37.771876 435.938453) scale(0.1 -0.1)">
     <defs>
      <path id="DejaVuSans-51" d="M 2522 4238 
Q 1834 4238 1429 3725 
Q 1025 3213 1025 2328 
Q 1025 1447 1429 934 
Q 1834 422 2522 422 
Q 3209 422 3611 934 
Q 4013 1447 4013 2328 
Q 4013 3213 3611 3725 
Q 3209 4238 2522 4238 
z
M 3406 84 
L 4238 -825 
L 3475 -825 
L 2784 -78 
Q 2681 -84 2626 -87 
Q 2572 -91 2522 -91 
Q 1538 -91 948 567 
Q 359 1225 359 2328 
Q 359 3434 948 4092 
Q 1538 4750 2522 4750 
Q 3503 4750 4090 4092 
Q 4678 3434 4678 2328 
Q 4678 1516 4351 937 
Q 4025 359 3406 84 
z
" transform="scale(0.015625)"/>
      <path id="DejaVuSans-75" d="M 544 1381 
L 544 3500 
L 1119 3500 
L 1119 1403 
Q 1119 906 1312 657 
Q 1506 409 1894 409 
Q 2359 409 2629 706 
Q 2900 1003 2900 1516 
L 2900 3500 
L 3475 3500 
L 3475 0 
L 2900 0 
L 2900 538 
Q 2691 219 2414 64 
Q 2138 -91 1772 -91 
Q 1169 -91 856 284 
Q 544 659 544 1381 
z
M 1991 3584 
L 1991 3584 
z
" transform="scale(0.015625)"/>
     </defs>
     <use xlink:href="#DejaVuSans-51"/>
     <use xlink:href="#DejaVuSans-75" transform="translate(78.710938 0)"/>
     <use xlink:href="#DejaVuSans-69" transform="translate(142.089844 0)"/>
     <use xlink:href="#DejaVuSans-6e" transform="translate(169.873047 0)"/>
     <use xlink:href="#DejaVuSans-6f" transform="translate(233.251953 0)"/>
     <use xlink:href="#DejaVuSans-6c" transform="translate(294.433594 0)"/>
     <use xlink:href="#DejaVuSans-6f" transform="translate(322.216797 0)"/>
     <use xlink:href="#DejaVuSans-6e" transform="translate(383.398438 0)"/>
     <use xlink:href="#DejaVuSans-65" transform="translate(446.777344 0)"/>
     <use xlink:href="#DejaVuSans-73" transform="translate(508.300781 0)"/>
    </g>
   </g>
   <g id="text_6">
    <!-- Glycopeptides -->
    <g transform="translate(201.387917 435.938374) scale(0.1 -0.1)">
     <defs>
      <path id="DejaVuSans-47" d="M 3809 666 
L 3809 1919 
L 2778 1919 
L 2778 2438 
L 4434 2438 
L 4434 434 
Q 4069 175 3628 42 
Q 3188 -91 2688 -91 
Q 1594 -91 976 548 
Q 359 1188 359 2328 
Q 359 3472 976 4111 
Q 1594 4750 2688 4750 
Q 3144 4750 3555 4637 
Q 3966 4525 4313 4306 
L 4313 3634 
Q 3963 3931 3569 4081 
Q 3175 4231 2741 4231 
Q 1884 4231 1454 3753 
Q 1025 3275 1025 2328 
Q 1025 1384 1454 906 
Q 1884 428 2741 428 
Q 3075 428 3337 486 
Q 3600 544 3809 666 
z
" transform="scale(0.015625)"/>
      <path id="DejaVuSans-70" d="M 1159 525 
L 1159 -1331 
L 581 -1331 
L 581 3500 
L 1159 3500 
L 1159 2969 
Q 1341 3281 1617 3432 
Q 1894 3584 2278 3584 
Q 2916 3584 3314 3078 
Q 3713 2572 3713 1747 
Q 3713 922 3314 415 
Q 2916 -91 2278 -91 
Q 1894 -91 1617 61 
Q 1341 213 1159 525 
z
M 3116 1747 
Q 3116 2381 2855 2742 
Q 2594 3103 2138 3103 
Q 1681 3103 1420 2742 
Q 1159 2381 1159 1747 
Q 1159 1113 1420 752 
Q 1681 391 2138 391 
Q 2594 391 2855 752 
Q 3116 1113 3116 1747 
z
" transform="scale(0.015625)"/>
     </defs>
     <use xlink:href="#DejaVuSans-47"/>
     <use xlink:href="#DejaVuSans-6c" transform="translate(77.490234 0)"/>
     <use xlink:href="#DejaVuSans-79" transform="translate(105.273438 0)"/>
     <use xlink:href="#DejaVuSans-63" transform="translate(164.453125 0)"/>
     <use xlink:href="#DejaVuSans-6f" transform="translate(219.433594 0)"/>
     <use xlink:href="#DejaVuSans-70" transform="translate(280.615234 0)"/>
     <use xlink:href="#DejaVuSans-65" transform="translate(344.091797 0)"/>
     <use xlink:href="#DejaVuSans-70" transform="translate(405.615234 0)"/>
     <use xlink:href="#DejaVuSans-74" transform="translate(469.091797 0)"/>
     <use xlink:href="#DejaVuSans-69" transform="translate(508.300781 0)"/>
     <use xlink:href="#DejaVuSans-64" transform="translate(536.083984 0)"/>
     <use xlink:href="#DejaVuSans-65" transform="translate(599.560547 0)"/>
     <use xlink:href="#DejaVuSans-73" transform="translate(661.083984 0)"/>
    </g>
   </g>
   <g id="text_7">
    <!-- Glycylcyclines -->
    <g transform="translate(253.344006 421.155556) scale(0.1 -0.1)">
     <use xlink:href="#DejaVuSans-47"/>
     <use xlink:href="#DejaVuSans-6c" transform="translate(77.490234 0)"/>
     <use xlink:href="#DejaVuSans-79" transform="translate(105.273438 0)"/>
     <use xlink:href="#DejaVuSans-63" transform="translate(164.453125 0)"/>
     <use xlink:href="#DejaVuSans-79" transform="translate(219.433594 0)"/>
     <use xlink:href="#DejaVuSans-6c" transform="translate(278.613281 0)"/>
     <use xlink:href="#DejaVuSans-63" transform="translate(306.396484 0)"/>
     <use xlink:href="#DejaVuSans-79" transform="translate(361.376953 0)"/>
     <use xlink:href="#DejaVuSans-63" transform="translate(420.556641 0)"/>
     <use xlink:href="#DejaVuSans-6c" transform="translate(475.537109 0)"/>
     <use xlink:href="#DejaVuSans-69" transform="translate(503.320312 0)"/>
     <use xlink:href="#DejaVuSans-6e" transform="translate(531.103516 0)"/>
     <use xlink:href="#DejaVuSans-65" transform="translate(594.482422 0)"/>
     <use xlink:href="#DejaVuSans-73" transform="translate(656.005859 0)"/>
    </g>
   </g>
   <g id="text_8">
    <!-- Amphenicols -->
    <g transform="translate(301.699225 397.077459) scale(0.1 -0.1)">
     <defs>
      <path id="DejaVuSans-68" d="M 3513 2113 
L 3513 0 
L 2938 0 
L 2938 2094 
Q 2938 2591 2744 2837 
Q 2550 3084 2163 3084 
Q 1697 3084 1428 2787 
Q 1159 2491 1159 1978 
L 1159 0 
L 581 0 
L 581 4863 
L 1159 4863 
L 1159 2956 
Q 1366 3272 1645 3428 
Q 1925 3584 2291 3584 
Q 2894 3584 3203 3211 
Q 3513 2838 3513 2113 
z
" transform="scale(0.015625)"/>
     </defs>
     <use xlink:href="#DejaVuSans-41"/>
     <use xlink:href="#DejaVuSans-6d" transform="translate(68.408203 0)"/>
     <use xlink:href="#DejaVuSans-70" transform="translate(165.820312 0)"/>
     <use xlink:href="#DejaVuSans-68" transform="translate(229.296875 0)"/>
     <use xlink:href="#DejaVuSans-65" transform="translate(292.675781 0)"/>
     <use xlink:href="#DejaVuSans-6e" transform="translate(354.199219 0)"/>
     <use xlink:href="#DejaVuSans-69" transform="translate(417.578125 0)"/>
     <use xlink:href="#DejaVuSans-63" transform="translate(445.361328 0)"/>
     <use xlink:href="#DejaVuSans-6f" transform="translate(500.341797 0)"/>
     <use xlink:href="#DejaVuSans-6c" transform="translate(561.523438 0)"/>
     <use xlink:href="#DejaVuSans-73" transform="translate(589.306641 0)"/>
    </g>
   </g>
   <g id="text_9">
    <!-- Oxazolidinones -->
    <g transform="translate(344.806643 364.524158) scale(0.1 -0.1)">
     <defs>
      <path id="DejaVuSans-4f" d="M 2522 4238 
Q 1834 4238 1429 3725 
Q 1025 3213 1025 2328 
Q 1025 1447 1429 934 
Q 1834 422 2522 422 
Q 3209 422 3611 934 
Q 4013 1447 4013 2328 
Q 4013 3213 3611 3725 
Q 3209 4238 2522 4238 
z
M 2522 4750 
Q 3503 4750 4090 4092 
Q 4678 3434 4678 2328 
Q 4678 1225 4090 567 
Q 3503 -91 2522 -91 
Q 1538 -91 948 565 
Q 359 1222 359 2328 
Q 359 3434 948 4092 
Q 1538 4750 2522 4750 
z
" transform="scale(0.015625)"/>
      <path id="DejaVuSans-78" d="M 3513 3500 
L 2247 1797 
L 3578 0 
L 2900 0 
L 1881 1375 
L 863 0 
L 184 0 
L 1544 1831 
L 300 3500 
L 978 3500 
L 1906 2253 
L 2834 3500 
L 3513 3500 
z
" transform="scale(0.015625)"/>
      <path id="DejaVuSans-7a" d="M 353 3500 
L 3084 3500 
L 3084 2975 
L 922 459 
L 3084 459 
L 3084 0 
L 275 0 
L 275 525 
L 2438 3041 
L 353 3041 
L 353 3500 
z
" transform="scale(0.015625)"/>
     </defs>
     <use xlink:href="#DejaVuSans-4f"/>
     <use xlink:href="#DejaVuSans-78" transform="translate(78.710938 0)"/>
     <use xlink:href="#DejaVuSans-61" transform="translate(137.890625 0)"/>
     <use xlink:href="#DejaVuSans-7a" transform="translate(199.169922 0)"/>
     <use xlink:href="#DejaVuSans-6f" transform="translate(251.660156 0)"/>
     <use xlink:href="#DejaVuSans-6c" transform="translate(312.841797 0)"/>
     <use xlink:href="#DejaVuSans-69" transform="translate(340.625 0)"/>
     <use xlink:href="#DejaVuSans-64" transform="translate(368.408203 0)"/>
     <use xlink:href="#DejaVuSans-69" transform="translate(431.884766 0)"/>
     <use xlink:href="#DejaVuSans-6e" transform="translate(459.667969 0)"/>
     <use xlink:href="#DejaVuSans-6f" transform="translate(523.046875 0)"/>
     <use xlink:href="#DejaVuSans-6e" transform="translate(584.228516 0)"/>
     <use xlink:href="#DejaVuSans-65" transform="translate(647.607422 0)"/>
     <use xlink:href="#DejaVuSans-73" transform="translate(709.130859 0)"/>
    </g>
   </g>
   <g id="text_10">
    <!-- Ansamycin -->
    <g transform="translate(381.198418 324.604168) scale(0.1 -0.1)">
     <use xlink:href="#DejaVuSans-41"/>
     <use xlink:href="#DejaVuSans-6e" transform="translate(68.408203 0)"/>
     <use xlink:href="#DejaVuSans-73" transform="translate(131.787109 0)"/>
     <use xlink:href="#DejaVuSans-61" transform="translate(183.886719 0)"/>
     <use xlink:href="#DejaVuSans-6d" transform="translate(245.166016 0)"/>
     <use xlink:href="#DejaVuSans-79" transform="translate(342.578125 0)"/>
     <use xlink:href="#DejaVuSans-63" transform="translate(401.757812 0)"/>
     <use xlink:href="#DejaVuSans-69" transform="translate(456.738281 0)"/>
     <use xlink:href="#DejaVuSans-6e" transform="translate(484.521484 0)"/>
    </g>
   </g>
   <g id="text_11">
    <!-- Phosphonic Acids -->
    <g transform="translate(409.63527 278.676917) scale(0.1 -0.1)">
     <defs>
      <path id="DejaVuSans-50" d="M 1259 4147 
L 1259 2394 
L 2053 2394 
Q 2494 2394 2734 2622 
Q 2975 2850 2975 3272 
Q 2975 3691 2734 3919 
Q 2494 4147 2053 4147 
L 1259 4147 
z
M 628 4666 
L 2053 4666 
Q 2838 4666 3239 4311 
Q 3641 3956 3641 3272 
Q 3641 2581 3239 2228 
Q 2838 1875 2053 1875 
L 1259 1875 
L 1259 0 
L 628 0 
L 628 4666 
z
" transform="scale(0.015625)"/>
      <path id="DejaVuSans-20" transform="scale(0.015625)"/>
     </defs>
     <use xlink:href="#DejaVuSans-50"/>
     <use xlink:href="#DejaVuSans-68" transform="translate(60.302734 0)"/>
     <use xlink:href="#DejaVuSans-6f" transform="translate(123.681641 0)"/>
     <use xlink:href="#DejaVuSans-73" transform="translate(184.863281 0)"/>
     <use xlink:href="#DejaVuSans-70" transform="translate(236.962891 0)"/>
     <use xlink:href="#DejaVuSans-68" transform="translate(300.439453 0)"/>
     <use xlink:href="#DejaVuSans-6f" transform="translate(363.818359 0)"/>
     <use xlink:href="#DejaVuSans-6e" transform="translate(425 0)"/>
     <use xlink:href="#DejaVuSans-69" transform="translate(488.378906 0)"/>
     <use xlink:href="#DejaVuSans-63" transform="translate(516.162109 0)"/>
     <use xlink:href="#DejaVuSans-20" transform="translate(571.142578 0)"/>
     <use xlink:href="#DejaVuSans-41" transform="translate(602.929688 0)"/>
     <use xlink:href="#DejaVuSans-63" transform="translate(669.587891 0)"/>
     <use xlink:href="#DejaVuSans-69" transform="translate(724.568359 0)"/>
     <use xlink:href="#DejaVuSans-64" transform="translate(752.351562 0)"/>
     <use xlink:href="#DejaVuSans-73" transform="translate(815.828125 0)"/>
    </g>
   </g>
   <g id="text_12">
    <!-- Trimethoprims -->
    <g transform="translate(429.148815 228.306406) scale(0.1 -0.1)">
     <use xlink:href="#DejaVuSans-54"/>
     <use xlink:href="#DejaVuSans-72" transform="translate(46.333984 0)"/>
     <use xlink:href="#DejaVuSans-69" transform="translate(87.447266 0)"/>
     <use xlink:href="#DejaVuSans-6d" transform="translate(115.230469 0)"/>
     <use xlink:href="#DejaVuSans-65" transform="translate(212.642578 0)"/>
     <use xlink:href="#DejaVuSans-74" transform="translate(274.166016 0)"/>
     <use xlink:href="#DejaVuSans-68" transform="translate(313.375 0)"/>
     <use xlink:href="#DejaVuSans-6f" transform="translate(376.753906 0)"/>
     <use xlink:href="#DejaVuSans-70" transform="translate(437.935547 0)"/>
     <use xlink:href="#DejaVuSans-72" transform="translate(501.412109 0)"/>
     <use xlink:href="#DejaVuSans-69" transform="translate(542.525391 0)"/>
     <use xlink:href="#DejaVuSans-6d" transform="translate(570.308594 0)"/>
     <use xlink:href="#DejaVuSans-73" transform="translate(667.720703 0)"/>
    </g>
   </g>
   <g id="text_13">
    <!-- Sulfonamides -->
    <g transform="translate(439.074543 175.207942) scale(0.1 -0.1)">
     <defs>
      <path id="DejaVuSans-53" d="M 3425 4513 
L 3425 3897 
Q 3066 4069 2747 4153 
Q 2428 4238 2131 4238 
Q 1616 4238 1336 4038 
Q 1056 3838 1056 3469 
Q 1056 3159 1242 3001 
Q 1428 2844 1947 2747 
L 2328 2669 
Q 3034 2534 3370 2195 
Q 3706 1856 3706 1288 
Q 3706 609 3251 259 
Q 2797 -91 1919 -91 
Q 1588 -91 1214 -16 
Q 841 59 441 206 
L 441 856 
Q 825 641 1194 531 
Q 1563 422 1919 422 
Q 2459 422 2753 634 
Q 3047 847 3047 1241 
Q 3047 1584 2836 1778 
Q 2625 1972 2144 2069 
L 1759 2144 
Q 1053 2284 737 2584 
Q 422 2884 422 3419 
Q 422 4038 858 4394 
Q 1294 4750 2059 4750 
Q 2388 4750 2728 4690 
Q 3069 4631 3425 4513 
z
" transform="scale(0.015625)"/>
      <path id="DejaVuSans-66" d="M 2375 4863 
L 2375 4384 
L 1825 4384 
Q 1516 4384 1395 4259 
Q 1275 4134 1275 3809 
L 1275 3500 
L 2222 3500 
L 2222 3053 
L 1275 3053 
L 1275 0 
L 697 0 
L 697 3053 
L 147 3053 
L 147 3500 
L 697 3500 
L 697 3744 
Q 697 4328 969 4595 
Q 1241 4863 1831 4863 
L 2375 4863 
z
" transform="scale(0.015625)"/>
     </defs>
     <use xlink:href="#DejaVuSans-53"/>
     <use xlink:href="#DejaVuSans-75" transform="translate(63.476562 0)"/>
     <use xlink:href="#DejaVuSans-6c" transform="translate(126.855469 0)"/>
     <use xlink:href="#DejaVuSans-66" transform="translate(154.638672 0)"/>
     <use xlink:href="#DejaVuSans-6f" transform="translate(189.84375 0)"/>
     <use xlink:href="#DejaVuSans-6e" transform="translate(251.025391 0)"/>
     <use xlink:href="#DejaVuSans-61" transform="translate(314.404297 0)"/>
     <use xlink:href="#DejaVuSans-6d" transform="translate(375.683594 0)"/>
     <use xlink:href="#DejaVuSans-69" transform="translate(473.095703 0)"/>
     <use xlink:href="#DejaVuSans-64" transform="translate(500.878906 0)"/>
     <use xlink:href="#DejaVuSans-65" transform="translate(564.355469 0)"/>
     <use xlink:href="#DejaVuSans-73" transform="translate(625.878906 0)"/>
    </g>
   </g>
  </g>
 </g>
</svg>
